<svg id="Capa_1" enable-background="new 0 0 512 512" viewBox="0 0 512 512" xmlns="http://www.w3.org/2000/svg"><g><path d="m256 121c-36.064 0-69.959 14.042-95.439 39.539-5.856 5.86-5.853 15.357.007 21.213 5.86 5.857 15.358 5.853 21.213-.007 19.813-19.827 46.171-30.745 74.219-30.745s54.416 10.929 74.249 30.774c5.852 5.857 15.35 5.866 21.213.007 5.86-5.856 5.863-15.353.007-21.213-25.5-25.516-59.405-39.568-95.469-39.568z"/><path d="m256 181c-20.033 0-38.868 7.801-53.033 21.967-5.857 5.858-5.857 15.355 0 21.213 5.857 5.857 15.355 5.858 21.213 0 8.5-8.499 19.8-13.18 31.82-13.18s23.32 4.681 31.819 13.18c5.858 5.857 15.354 5.859 21.213 0 5.858-5.858 5.858-15.355 0-21.213-14.164-14.166-32.999-21.967-53.032-21.967z"/><circle cx="256" cy="256" r="15"/><circle cx="256" cy="497" r="15"/><circle cx="346" cy="497" r="15"/><circle cx="436" cy="497" r="15"/><circle cx="166" cy="497" r="15"/><circle cx="76" cy="497" r="15"/><path d="m450.905 131.463c-2.362-56.353-48.513-101.463-104.905-101.463-18.002 0-35.442 4.669-51.151 13.608-25.564-27.877-60.88-43.608-98.849-43.608-72.936 0-132.547 58.57-134.926 131.473-36.949 17.361-61.074 54.069-61.074 94.527 0 52.854 39.63 96.704 91 103.944v40.843l-25.606 25.607c-2.813 2.813-4.394 6.628-4.394 10.606v30c0 8.284 6.716 15 15 15s15-6.716 15-15v-23.787l25.606-25.607c2.813-2.813 4.394-6.628 4.394-10.606v-46h60v39.787l-25.606 25.607c-2.813 2.813-4.394 6.628-4.394 10.606v30c0 8.284 6.716 15 15 15s15-6.716 15-15v-23.787l25.606-25.607c2.813-2.813 4.394-6.628 4.394-10.606v-46h30v106c0 8.284 6.716 15 15 15s15-6.716 15-15v-106h30v46c0 3.978 1.581 7.793 4.394 10.606l25.606 25.607v23.787c0 8.284 6.716 15 15 15s15-6.716 15-15v-30c0-3.978-1.581-7.793-4.394-10.606l-25.606-25.607v-39.787h60v46c0 3.978 1.581 7.793 4.394 10.606l25.606 25.607v23.787c0 8.284 6.716 15 15 15s15-6.716 15-15v-30c0-3.978-1.581-7.793-4.394-10.606l-25.606-25.607v-40.843c51.37-7.24 91-51.09 91-103.944 0-40.466-24.134-77.181-61.095-94.537zm-44.905 169.537h-300c-41.907 0-76-33.645-76-75 0-31.435 20.686-59.763 51.474-70.491 9.341-3.255 10.407-10.712 9.526-19.629.063-58.395 47.142-105.88 105-105.88 33.121 0 63.687 15.486 83.862 42.486 2.392 3.202 5.964 5.317 9.922 5.875 3.958.559 7.975-.487 11.16-2.902 13.332-10.113 28.912-15.459 45.056-15.459 41.327 0 74.955 34.051 75 75.919-.733 8.966.067 16.295 9.526 19.59 30.788 10.728 51.474 39.056 51.474 70.491 0 41.355-34.093 75-76 75z"/></g></svg>